# Blender v2.93.0 OBJ File: 'DogPoo.blend'
# www.blender.org
mtllib DogPoo.mtl
o Poop_Cylinder.003
v -0.000000 0.127496 -0.195123
v -0.000000 0.157845 -0.226223
v -0.000000 0.229949 -0.174334
v -0.000000 0.202228 -0.217364
v 0.151186 0.124845 -0.122364
v 0.176521 0.154757 -0.141491
v 0.151186 0.227844 -0.118610
v 0.176521 0.199403 -0.139864
v 0.188526 0.118887 0.041124
v 0.220118 0.145901 0.049325
v 0.188526 0.219863 0.044804
v 0.220118 0.186522 0.050805
v 0.083902 0.114109 0.172232
v 0.097962 0.142222 0.202471
v 0.083902 0.217108 0.175985
v 0.097962 0.186869 0.204099
v -0.083902 0.114154 0.172296
v -0.097962 0.144907 0.204604
v -0.083902 0.219756 0.178195
v -0.097962 0.192487 0.208553
v -0.188526 0.118887 0.041124
v -0.220118 0.147800 0.049394
v -0.179244 0.224140 0.044960
v -0.217427 0.193217 0.051049
v -0.151186 0.124845 -0.122364
v -0.176521 0.154757 -0.141491
v -0.151186 0.227844 -0.118610
v -0.176521 0.199403 -0.139864
v -0.001169 -0.003600 -0.252728
v -0.003675 0.037095 -0.281656
v 0.000145 0.128902 -0.257523
v -0.000855 0.093488 -0.295889
v 0.200886 -0.003789 -0.160201
v 0.234549 0.035004 -0.187047
v 0.200886 0.133160 -0.160201
v 0.234549 0.094367 -0.187047
v 0.250501 -0.003789 0.057175
v 0.286526 0.035777 0.067789
v 0.242079 0.132898 0.058257
v 0.265126 0.096891 0.071427
v 0.111483 -0.003789 0.231497
v 0.129890 0.033244 0.270404
v 0.110419 0.137465 0.231218
v 0.128676 0.087724 0.270716
v -0.111483 -0.003789 0.231497
v -0.130165 0.035004 0.270291
v -0.111483 0.133160 0.231497
v -0.130165 0.094367 0.270291
v -0.250501 -0.003789 0.057175
v -0.292478 0.035004 0.066756
v -0.250501 0.133160 0.057175
v -0.292478 0.094367 0.066756
v -0.200886 -0.003789 -0.160201
v -0.232679 0.035730 -0.186619
v -0.198848 0.133951 -0.159734
v -0.226679 0.097423 -0.185245
v 0.000121 0.215131 -0.125960
v 0.000121 0.237190 -0.143320
v 0.000751 0.361960 0.060983
v 0.000121 0.277230 -0.131393
v 0.105166 0.215424 -0.076200
v 0.122769 0.238768 -0.090331
v 0.026052 0.359559 0.070502
v 0.122769 0.278976 -0.090473
v 0.131110 0.216084 0.037467
v 0.153060 0.238080 0.042390
v 0.032301 0.361386 0.082045
v 0.153060 0.274780 0.042260
v 0.058416 0.216364 0.128621
v 0.068185 0.239866 0.148813
v 0.014792 0.365645 0.103586
v 0.068185 0.280074 0.148670
v -0.058175 0.216265 0.128664
v -0.067944 0.241802 0.150217
v -0.013290 0.367728 0.103852
v -0.067944 0.284215 0.151603
v -0.130401 0.215818 0.037467
v -0.148322 0.238306 0.042384
v -0.029397 0.370754 0.081917
v -0.141020 0.278795 0.042239
v -0.104925 0.215424 -0.076200
v -0.122528 0.238768 -0.090331
v -0.024550 0.370074 0.070502
v -0.122528 0.278976 -0.090473
v 0.052010 0.314834 -0.002644
v 0.000384 0.313094 -0.038001
v 0.100803 0.310945 0.058873
v 0.045890 0.315806 0.129844
v -0.045122 0.318432 0.131663
v -0.099474 0.313577 0.057309
v -0.081614 0.314834 -0.024261
v -0.002767 0.363405 0.071725
v -0.008928 0.365936 0.090535
vt 0.142857 0.641634
vt 0.142857 0.858366
vt 0.000000 0.858366
vt 0.000000 0.641634
vt 0.714286 0.641634
vt 0.714286 0.858366
vt 0.571429 0.858366
vt 0.571429 0.641634
vt 0.428571 0.858366
vt 0.428571 0.641634
vt 0.285714 0.858366
vt 0.285714 0.641634
vt 0.857143 0.641634
vt 0.857143 0.858366
vt 0.410709 0.378161
vt 0.250000 0.455554
vt 0.089291 0.378161
vt 0.049600 0.204260
vt 0.160813 0.064802
vt 0.339187 0.064802
vt 0.450400 0.204260
vt 1.000000 0.641634
vt 1.000000 0.858366
vt 0.867395 0.500000
vt 0.989748 0.500000
vt 0.989748 1.000000
vt 0.867395 1.000000
vt 0.724537 0.500000
vt 0.846891 0.500000
vt 0.846891 1.000000
vt 0.724537 1.000000
vt 0.581680 0.500000
vt 0.704034 0.500000
vt 0.704034 1.000000
vt 0.581680 1.000000
vt 0.438823 0.500000
vt 0.561177 0.500000
vt 0.561177 1.000000
vt 0.438823 1.000000
vt 0.295966 0.500000
vt 0.418320 0.500000
vt 0.418320 1.000000
vt 0.295966 1.000000
vt 0.153109 0.500000
vt 0.275463 0.500000
vt 0.275463 1.000000
vt 0.153109 1.000000
vt 0.010252 0.500000
vt 0.132605 0.500000
vt 0.132605 1.000000
vt 0.010252 1.000000
vt 0.142857 0.641634
vt 0.142857 0.858366
vt 0.000000 0.858366
vt 0.000000 0.641634
vt 0.714286 0.641634
vt 0.714286 0.858366
vt 0.571429 0.858366
vt 0.571429 0.641634
vt 0.428571 0.858366
vt 0.428571 0.641634
vt 0.285714 0.858366
vt 0.285714 0.641634
vt 0.857143 0.641634
vt 0.857143 0.858366
vt 0.410709 0.378161
vt 0.250000 0.455554
vt 0.089291 0.378161
vt 0.049600 0.204260
vt 0.160813 0.064802
vt 0.339187 0.064802
vt 0.450400 0.204260
vt 1.000000 0.641634
vt 1.000000 0.858366
vt 0.867395 0.500000
vt 0.989748 0.500000
vt 0.989748 1.000000
vt 0.867395 1.000000
vt 0.724537 0.500000
vt 0.846891 0.500000
vt 0.846891 1.000000
vt 0.724537 1.000000
vt 0.581680 0.500000
vt 0.704034 0.500000
vt 0.704034 1.000000
vt 0.581680 1.000000
vt 0.438823 0.500000
vt 0.561177 0.500000
vt 0.561177 1.000000
vt 0.438823 1.000000
vt 0.295966 0.500000
vt 0.418320 0.500000
vt 0.418320 1.000000
vt 0.295966 1.000000
vt 0.153109 0.500000
vt 0.275463 0.500000
vt 0.275463 1.000000
vt 0.153109 1.000000
vt 0.010252 0.500000
vt 0.132605 0.500000
vt 0.132605 1.000000
vt 0.010252 1.000000
vt 0.750000 0.455554
vt 0.910709 0.378161
vt 0.950400 0.204260
vt 0.839187 0.064802
vt 0.660813 0.064802
vt 0.549600 0.204260
vt 0.589291 0.378161
vt 0.142857 0.641634
vt 0.142857 0.858366
vt 0.000000 0.858366
vt 0.000000 0.641634
vt 0.714286 0.641634
vt 0.714286 0.858366
vt 0.571429 0.858366
vt 0.571429 0.641634
vt 0.428571 0.858366
vt 0.428571 0.641634
vt 0.285714 0.858366
vt 0.285714 0.641634
vt 0.857143 0.641634
vt 0.857143 0.858366
vt 0.410709 0.378161
vt 0.250000 0.455554
vt 0.227653 0.357645
vt 0.450400 0.204260
vt 1.000000 0.641634
vt 1.000000 0.858366
vt 0.867395 0.500000
vt 0.989748 0.500000
vt 0.861424 0.917509
vt 0.995719 0.917509
vt 0.989748 1.000000
vt 0.867395 1.000000
vt 0.724537 0.500000
vt 0.846891 0.500000
vt 0.718567 0.917509
vt 0.852862 0.917509
vt 0.846891 1.000000
vt 0.724537 1.000000
vt 0.581680 0.500000
vt 0.704034 0.500000
vt 0.575709 0.917509
vt 0.710005 0.917509
vt 0.704034 1.000000
vt 0.581680 1.000000
vt 0.438823 0.500000
vt 0.561177 0.500000
vt 0.432852 0.917509
vt 0.567148 0.917509
vt 0.561177 1.000000
vt 0.438823 1.000000
vt 0.295966 0.500000
vt 0.418320 0.500000
vt 0.289995 0.917509
vt 0.424291 0.917509
vt 0.418320 1.000000
vt 0.295966 1.000000
vt 0.153109 0.500000
vt 0.275463 0.500000
vt 0.147138 0.917509
vt 0.281433 0.917509
vt 0.275463 1.000000
vt 0.153109 1.000000
vt 0.010252 0.500000
vt 0.132605 0.500000
vt 0.004281 0.917509
vt 0.138576 0.917509
vt 0.132605 1.000000
vt 0.010252 1.000000
vt 0.160813 0.064802
vt 0.188519 0.186187
vt 0.049600 0.204260
vt 0.339187 0.064802
vt 0.089291 0.378161
vn -0.4167 0.1063 -0.9028
vn 0.7818 -0.0227 0.6231
vn 0.0155 -0.0603 0.9981
vn -0.7913 -0.0139 0.6113
vn -0.9760 0.0370 -0.2147
vn 0.9749 0.0081 -0.2224
vn 0.0082 0.9994 0.0328
vn 0.4167 0.1063 -0.9028
vn 0.3070 -0.6822 -0.6636
vn 0.2476 0.7759 -0.5803
vn 0.6770 -0.7125 -0.1845
vn 0.7146 0.6887 -0.1228
vn 0.5413 -0.7341 0.4100
vn 0.5797 0.6672 0.4678
vn -0.0013 -0.7282 0.6853
vn 0.0290 0.7127 0.7009
vn -0.5578 -0.7143 0.4227
vn -0.5365 0.7380 0.4093
vn -0.6894 -0.7009 -0.1830
vn -0.6648 0.7391 -0.1087
vn -0.3070 -0.6822 -0.6636
vn -0.2476 0.7759 -0.5803
vn -0.4114 -0.0682 -0.9089
vn 0.7986 0.1362 0.5863
vn -0.0011 -0.0028 1.0000
vn -0.7818 -0.0000 0.6235
vn -0.9693 0.0508 -0.2405
vn 0.9715 0.1773 -0.1574
vn -0.0011 1.0000 -0.0084
vn 0.3915 -0.1217 -0.9121
vn 0.3029 -0.6241 -0.7202
vn 0.2981 0.7008 -0.6481
vn 0.7222 -0.6743 -0.1543
vn 0.7804 0.6136 -0.1203
vn 0.5705 -0.6917 0.4428
vn 0.6452 0.6007 0.4721
vn -0.0028 -0.7157 0.6984
vn 0.0030 0.6624 0.7491
vn -0.5528 -0.7071 0.4409
vn -0.5528 0.7071 0.4409
vn -0.7002 -0.6949 -0.1638
vn -0.7044 0.6890 -0.1708
vn -0.3106 -0.6262 -0.7151
vn -0.3036 0.6977 -0.6488
vn -0.0000 -1.0000 -0.0002
vn -0.3526 0.1360 -0.9258
vn 0.7818 0.0022 0.6235
vn 0.0156 -0.0150 0.9998
vn -0.8163 0.0633 0.5741
vn -0.9825 0.0883 -0.1637
vn 0.9749 -0.0008 -0.2225
vn 0.1240 0.9795 -0.1590
vn 0.3526 0.1360 -0.9258
vn 0.3267 -0.6209 -0.7126
vn 0.2591 0.8642 -0.4314
vn 0.7262 -0.6672 -0.1658
vn 0.4763 0.8126 -0.3359
vn 0.5809 -0.6645 0.4702
vn 0.6331 0.6421 0.4323
vn -0.0004 -0.6482 0.7615
vn 0.0343 0.4784 0.8775
vn -0.6155 -0.6218 0.4843
vn -0.6368 0.6231 0.4541
vn -0.7645 -0.6246 -0.1593
vn -0.5809 0.8024 -0.1369
vn -0.3267 -0.6209 -0.7126
vn -0.0205 0.8832 -0.4685
vn -0.0883 0.9169 -0.3892
vn -0.5919 0.8004 -0.0950
vn -0.6503 0.6360 0.4155
vn 0.0327 0.4843 0.8743
vn 0.6141 0.6506 0.4467
vn 0.4153 0.9001 -0.1316
vn 0.1228 0.9382 -0.3235
vn 0.2483 0.9675 -0.0489
vn 0.0852 0.9895 -0.1165
vn 0.2942 0.9552 -0.0322
vn 0.0725 0.9913 -0.1096
vn 0.2637 0.9646 -0.0064
usemtl Poop
s off
f 26/1/1 28/2/1 4/3/1 2/4/1
f 10/5/2 12/6/2 16/7/2 14/8/2
f 14/8/3 16/7/3 20/9/3 18/10/3
f 18/10/4 20/9/4 24/11/4 22/12/4
f 22/12/5 24/11/5 28/2/5 26/1/5
f 6/13/6 8/14/6 12/6/6 10/5/6
f 7/15/7 3/16/7 27/17/7 23/18/7 19/19/7 15/20/7 11/21/7
f 2/22/8 4/23/8 8/14/8 6/13/8
f 2/22/9 6/13/9 5/24/9 1/25/9
f 8/14/10 4/23/10 3/26/10 7/27/10
f 6/13/11 10/5/11 9/28/11 5/29/11
f 12/6/12 8/14/12 7/30/12 11/31/12
f 10/5/13 14/8/13 13/32/13 9/33/13
f 16/7/14 12/6/14 11/34/14 15/35/14
f 14/8/15 18/10/15 17/36/15 13/37/15
f 20/9/16 16/7/16 15/38/16 19/39/16
f 18/10/17 22/12/17 21/40/17 17/41/17
f 24/11/18 20/9/18 19/42/18 23/43/18
f 22/12/19 26/1/19 25/44/19 21/45/19
f 28/2/20 24/11/20 23/46/20 27/47/20
f 26/1/21 2/4/21 1/48/21 25/49/21
f 4/3/22 28/2/22 27/50/22 3/51/22
f 54/52/23 56/53/23 32/54/23 30/55/23
f 38/56/24 40/57/24 44/58/24 42/59/24
f 42/59/25 44/58/25 48/60/25 46/61/25
f 46/61/26 48/60/26 52/62/26 50/63/26
f 50/63/27 52/62/27 56/53/27 54/52/27
f 34/64/28 36/65/28 40/57/28 38/56/28
f 35/66/29 31/67/29 55/68/29 51/69/29 47/70/29 43/71/29 39/72/29
f 30/73/30 32/74/30 36/65/30 34/64/30
f 30/73/31 34/64/31 33/75/31 29/76/31
f 36/65/32 32/74/32 31/77/32 35/78/32
f 34/64/33 38/56/33 37/79/33 33/80/33
f 40/57/34 36/65/34 35/81/34 39/82/34
f 38/56/35 42/59/35 41/83/35 37/84/35
f 44/58/36 40/57/36 39/85/36 43/86/36
f 42/59/37 46/61/37 45/87/37 41/88/37
f 48/60/38 44/58/38 43/89/38 47/90/38
f 46/61/39 50/63/39 49/91/39 45/92/39
f 52/62/40 48/60/40 47/93/40 51/94/40
f 50/63/41 54/52/41 53/95/41 49/96/41
f 56/53/42 52/62/42 51/97/42 55/98/42
f 54/52/43 30/55/43 29/99/43 53/100/43
f 32/54/44 56/53/44 55/101/44 31/102/44
f 29/103/45 33/104/45 37/105/45 41/106/45 45/107/45 49/108/45 53/109/45
f 82/110/46 84/111/46 60/112/46 58/113/46
f 66/114/47 68/115/47 72/116/47 70/117/47
f 70/117/48 72/116/48 76/118/48 74/119/48
f 74/119/49 76/118/49 80/120/49 78/121/49
f 78/121/50 80/120/50 84/111/50 82/110/50
f 62/122/51 64/123/51 68/115/51 66/114/51
f 63/124/52 59/125/52 92/126/52 67/127/52
f 58/128/53 60/129/53 64/123/53 62/122/53
f 58/128/54 62/122/54 61/130/54 57/131/54
f 85/132/55 86/133/55 59/134/55 63/135/55
f 62/122/56 66/114/56 65/136/56 61/137/56
f 87/138/57 85/139/57 63/140/57 67/141/57
f 66/114/58 70/117/58 69/142/58 65/143/58
f 88/144/59 87/145/59 67/146/59 71/147/59
f 70/117/60 74/119/60 73/148/60 69/149/60
f 89/150/61 88/151/61 71/152/61 75/153/61
f 74/119/62 78/121/62 77/154/62 73/155/62
f 90/156/63 89/157/63 75/158/63 79/159/63
f 78/121/64 82/110/64 81/160/64 77/161/64
f 91/162/65 90/163/65 79/164/65 83/165/65
f 82/110/66 58/113/66 57/166/66 81/167/66
f 86/168/67 91/169/67 83/170/67 59/171/67
f 60/112/68 84/111/68 91/169/68 86/168/68
f 84/111/69 80/120/69 90/163/69 91/162/69
f 80/120/70 76/118/70 89/157/70 90/156/70
f 76/118/71 72/116/71 88/151/71 89/150/71
f 72/116/72 68/115/72 87/145/72 88/144/72
f 68/115/73 64/123/73 85/139/73 87/138/73
f 64/123/74 60/129/74 86/133/74 85/132/74
f 75/172/75 93/173/75 79/174/75
f 67/127/76 92/126/76 93/173/76 71/175/76
f 83/176/77 92/126/77 59/125/77
f 71/175/78 93/173/78 75/172/78
f 79/174/79 93/173/79 92/126/79 83/176/79
